<?xml version="1.0" encoding="utf-8" standalone="no"?>
<!DOCTYPE svg PUBLIC "-//W3C//DTD SVG 1.1//EN"
  "http://www.w3.org/Graphics/SVG/1.1/DTD/svg11.dtd">
<svg xmlns:xlink="http://www.w3.org/1999/xlink" width="497.957109pt" height="293.566875pt" viewBox="0 0 497.957109 293.566875" xmlns="http://www.w3.org/2000/svg" version="1.1">
 <metadata>
  <rdf:RDF xmlns:dc="http://purl.org/dc/elements/1.1/" xmlns:cc="http://creativecommons.org/ns#" xmlns:rdf="http://www.w3.org/1999/02/22-rdf-syntax-ns#">
   <cc:Work>
    <dc:type rdf:resource="http://purl.org/dc/dcmitype/StillImage"/>
    <dc:date>2026-05-22T20:39:36.285977</dc:date>
    <dc:format>image/svg+xml</dc:format>
    <dc:creator>
     <cc:Agent>
      <dc:title>Matplotlib v3.10.8, https://matplotlib.org/</dc:title>
     </cc:Agent>
    </dc:creator>
   </cc:Work>
  </rdf:RDF>
 </metadata>
 <defs>
  <style type="text/css">*{stroke-linejoin: round; stroke-linecap: butt}</style>
 </defs>
 <g id="figure_1">
  <g id="patch_1">
   <path d="M 0 293.566875 
L 497.957109 293.566875 
L 497.957109 0 
L 0 0 
z
" style="fill: #ffffff"/>
  </g>
  <g id="axes_1">
   <g id="patch_2">
    <path d="M 76.077969 236.922812 
L 466.677969 236.922812 
L 466.677969 42.882812 
L 76.077969 42.882812 
z
" style="fill: #ffffff"/>
   </g>
   <g id="FillBetweenPolyCollection_1">
    <defs>
     <path id="m4499ff1970" d="M 76.077969 20.971937 
L 76.077969 -224.812062 
L 78.040783 -220.811805 
L 80.003597 -216.93292 
L 81.966411 -213.171393 
L 83.929225 -209.523281 
L 85.892039 -205.984743 
L 87.854853 -202.552054 
L 89.817667 -199.221635 
L 91.780481 -195.990065 
L 93.743295 -192.854101 
L 95.706109 -189.810694 
L 97.668924 -186.856998 
L 99.631738 -183.990378 
L 101.594552 -181.20842 
L 103.557366 -178.508933 
L 105.52018 -175.889945 
L 107.482994 -173.349706 
L 109.445808 -170.886673 
L 111.408622 -168.499512 
L 113.371436 -166.187074 
L 115.33425 -163.948389 
L 117.297064 -161.782643 
L 119.259878 -159.689164 
L 121.222692 -157.667395 
L 123.185506 -155.716876 
L 125.148321 -153.837219 
L 127.111135 -152.02808 
L 129.073949 -150.289142 
L 131.036763 -148.620081 
L 132.999577 -147.020548 
L 134.962391 -145.490145 
L 136.925205 -144.028399 
L 138.888019 -142.634744 
L 140.850833 -141.308503 
L 142.813647 -140.048869 
L 144.776461 -138.854893 
L 146.739275 -137.725469 
L 148.702089 -136.65933 
L 150.664903 -135.655041 
L 152.627717 -134.710991 
L 154.590532 -133.825404 
L 156.553346 -132.996332 
L 158.51616 -132.221669 
L 160.478974 -131.499158 
L 162.441788 -130.826405 
L 164.404602 -130.20089 
L 166.367416 -129.619991 
L 168.33023 -129.080998 
L 170.293044 -128.581137 
L 172.255858 -128.117592 
L 174.218672 -127.687531 
L 176.181486 -127.288127 
L 178.1443 -126.916584 
L 180.107114 -126.570164 
L 182.069929 -126.246209 
L 184.032743 -125.942163 
L 185.995557 -125.6556 
L 187.958371 -125.384236 
L 189.921185 -125.125957 
L 191.883999 -124.878826 
L 193.846813 -124.641103 
L 195.809627 -124.411257 
L 197.772441 -124.187968 
L 199.735255 -123.970138 
L 201.698069 -123.756891 
L 203.660883 -123.547573 
L 205.623697 -123.341745 
L 207.586511 -123.139181 
L 209.549326 -122.939852 
L 211.51214 -122.743917 
L 213.474954 -122.551709 
L 215.437768 -122.36371 
L 217.400582 -122.18054 
L 219.363396 -122.00293 
L 221.32621 -121.8317 
L 223.289024 -121.667736 
L 225.251838 -121.511964 
L 227.214652 -121.365328 
L 229.177466 -121.228761 
L 231.14028 -121.103165 
L 233.103094 -120.989385 
L 235.065908 -120.888187 
L 237.028723 -120.800242 
L 238.991537 -120.7261 
L 240.954351 -120.666181 
L 242.917165 -120.620759 
L 244.879979 -120.58995 
L 246.842793 -120.573704 
L 248.805607 -120.571803 
L 250.768421 -120.583857 
L 252.731235 -120.609306 
L 254.694049 -120.647423 
L 256.656863 -120.697323 
L 258.619677 -120.757975 
L 260.582491 -120.828212 
L 262.545305 -120.906748 
L 264.50812 -120.992197 
L 266.470934 -121.083092 
L 268.433748 -121.177908 
L 270.396562 -121.275082 
L 272.359376 -121.373043 
L 274.32219 -121.470228 
L 276.285004 -121.565115 
L 278.247818 -121.656245 
L 280.210632 -121.742243 
L 282.173446 -121.821846 
L 284.13626 -121.89392 
L 286.099074 -121.957483 
L 288.061888 -122.011725 
L 290.024702 -122.056019 
L 291.987516 -122.089935 
L 293.950331 -122.113255 
L 295.913145 -122.125976 
L 297.875959 -122.128315 
L 299.838773 -122.120713 
L 301.801587 -122.10383 
L 303.764401 -122.078543 
L 305.727215 -122.045935 
L 307.690029 -122.007289 
L 309.652843 -121.964068 
L 311.615657 -121.917904 
L 313.578471 -121.870577 
L 315.541285 -121.823997 
L 317.504099 -121.780181 
L 319.466913 -121.741227 
L 321.429728 -121.709295 
L 323.392542 -121.68658 
L 325.355356 -121.675283 
L 327.31817 -121.677594 
L 329.280984 -121.695664 
L 331.243798 -121.73158 
L 333.206612 -121.787347 
L 335.169426 -121.864867 
L 337.13224 -121.965922 
L 339.095054 -122.092156 
L 341.057868 -122.245064 
L 343.020682 -122.425983 
L 344.983496 -122.636083 
L 346.94631 -122.876362 
L 348.909125 -123.147648 
L 350.871939 -123.4506 
L 352.834753 -123.785711 
L 354.797567 -124.15332 
L 356.760381 -124.55362 
L 358.723195 -124.986674 
L 360.686009 -125.45243 
L 362.648823 -125.950741 
L 364.611637 -126.481383 
L 366.574451 -127.044081 
L 368.537265 -127.638527 
L 370.500079 -128.26441 
L 372.462893 -128.921439 
L 374.425707 -129.609363 
L 376.388522 -130.328003 
L 378.351336 -131.07727 
L 380.31415 -131.857193 
L 382.276964 -132.667936 
L 384.239778 -133.509817 
L 386.202592 -134.383332 
L 388.165406 -135.289161 
L 390.12822 -136.22819 
L 392.091034 -137.201513 
L 394.053848 -138.210442 
L 396.016662 -139.256511 
L 397.979476 -140.341477 
L 399.94229 -141.467316 
L 401.905104 -142.636217 
L 403.867918 -143.850576 
L 405.830733 -145.112981 
L 407.793547 -146.426202 
L 409.756361 -147.793168 
L 411.719175 -149.216957 
L 413.681989 -150.700766 
L 415.644803 -152.247896 
L 417.607617 -153.861724 
L 419.570431 -155.545681 
L 421.533245 -157.303226 
L 423.496059 -159.137822 
L 425.458873 -161.052912 
L 427.421687 -163.051891 
L 429.384501 -165.138091 
L 431.347315 -167.314753 
L 433.31013 -169.585011 
L 435.272944 -171.951874 
L 437.235758 -174.418211 
L 439.198572 -176.98674 
L 441.161386 -179.660016 
L 443.1242 -182.440427 
L 445.087014 -185.33019 
L 447.049828 -188.331351 
L 449.012642 -191.445786 
L 450.975456 -194.675212 
L 452.93827 -198.021189 
L 454.901084 -201.485138 
L 456.863898 -205.068351 
L 458.826712 -208.772012 
L 460.789527 -212.597213 
L 462.752341 -216.544976 
L 464.715155 -220.616275 
L 466.677969 -224.812062 
L 466.677969 20.971937 
L 466.677969 20.971937 
L 464.715155 20.971937 
L 462.752341 20.971937 
L 460.789527 20.971937 
L 458.826712 20.971937 
L 456.863898 20.971937 
L 454.901084 20.971937 
L 452.93827 20.971937 
L 450.975456 20.971937 
L 449.012642 20.971937 
L 447.049828 20.971937 
L 445.087014 20.971937 
L 443.1242 20.971937 
L 441.161386 20.971937 
L 439.198572 20.971937 
L 437.235758 20.971937 
L 435.272944 20.971937 
L 433.31013 20.971937 
L 431.347315 20.971937 
L 429.384501 20.971937 
L 427.421687 20.971937 
L 425.458873 20.971937 
L 423.496059 20.971937 
L 421.533245 20.971937 
L 419.570431 20.971937 
L 417.607617 20.971937 
L 415.644803 20.971937 
L 413.681989 20.971937 
L 411.719175 20.971937 
L 409.756361 20.971937 
L 407.793547 20.971937 
L 405.830733 20.971937 
L 403.867918 20.971937 
L 401.905104 20.971937 
L 399.94229 20.971937 
L 397.979476 20.971937 
L 396.016662 20.971937 
L 394.053848 20.971937 
L 392.091034 20.971937 
L 390.12822 20.971937 
L 388.165406 20.971937 
L 386.202592 20.971937 
L 384.239778 20.971937 
L 382.276964 20.971937 
L 380.31415 20.971937 
L 378.351336 20.971937 
L 376.388522 20.971937 
L 374.425707 20.971937 
L 372.462893 20.971937 
L 370.500079 20.971937 
L 368.537265 20.971937 
L 366.574451 20.971937 
L 364.611637 20.971937 
L 362.648823 20.971937 
L 360.686009 20.971937 
L 358.723195 20.971937 
L 356.760381 20.971937 
L 354.797567 20.971937 
L 352.834753 20.971937 
L 350.871939 20.971937 
L 348.909125 20.971937 
L 346.94631 20.971937 
L 344.983496 20.971937 
L 343.020682 20.971937 
L 341.057868 20.971937 
L 339.095054 20.971937 
L 337.13224 20.971937 
L 335.169426 20.971937 
L 333.206612 20.971937 
L 331.243798 20.971937 
L 329.280984 20.971937 
L 327.31817 20.971937 
L 325.355356 20.971937 
L 323.392542 20.971937 
L 321.429728 20.971937 
L 319.466913 20.971937 
L 317.504099 20.971937 
L 315.541285 20.971937 
L 313.578471 20.971937 
L 311.615657 20.971937 
L 309.652843 20.971937 
L 307.690029 20.971937 
L 305.727215 20.971937 
L 303.764401 20.971937 
L 301.801587 20.971937 
L 299.838773 20.971937 
L 297.875959 20.971937 
L 295.913145 20.971937 
L 293.950331 20.971937 
L 291.987516 20.971937 
L 290.024702 20.971937 
L 288.061888 20.971937 
L 286.099074 20.971937 
L 284.13626 20.971937 
L 282.173446 20.971937 
L 280.210632 20.971937 
L 278.247818 20.971937 
L 276.285004 20.971937 
L 274.32219 20.971937 
L 272.359376 20.971937 
L 270.396562 20.971937 
L 268.433748 20.971937 
L 266.470934 20.971937 
L 264.50812 20.971937 
L 262.545305 20.971937 
L 260.582491 20.971937 
L 258.619677 20.971937 
L 256.656863 20.971937 
L 254.694049 20.971937 
L 252.731235 20.971937 
L 250.768421 20.971937 
L 248.805607 20.971937 
L 246.842793 20.971937 
L 244.879979 20.971937 
L 242.917165 20.971937 
L 240.954351 20.971937 
L 238.991537 20.971937 
L 237.028723 20.971937 
L 235.065908 20.971937 
L 233.103094 20.971937 
L 231.14028 20.971937 
L 229.177466 20.971937 
L 227.214652 20.971937 
L 225.251838 20.971937 
L 223.289024 20.971937 
L 221.32621 20.971937 
L 219.363396 20.971937 
L 217.400582 20.971937 
L 215.437768 20.971937 
L 213.474954 20.971937 
L 211.51214 20.971937 
L 209.549326 20.971937 
L 207.586511 20.971937 
L 205.623697 20.971937 
L 203.660883 20.971937 
L 201.698069 20.971937 
L 199.735255 20.971937 
L 197.772441 20.971937 
L 195.809627 20.971937 
L 193.846813 20.971937 
L 191.883999 20.971937 
L 189.921185 20.971937 
L 187.958371 20.971937 
L 185.995557 20.971937 
L 184.032743 20.971937 
L 182.069929 20.971937 
L 180.107114 20.971937 
L 178.1443 20.971937 
L 176.181486 20.971937 
L 174.218672 20.971937 
L 172.255858 20.971937 
L 170.293044 20.971937 
L 168.33023 20.971937 
L 166.367416 20.971937 
L 164.404602 20.971937 
L 162.441788 20.971937 
L 160.478974 20.971937 
L 158.51616 20.971937 
L 156.553346 20.971937 
L 154.590532 20.971937 
L 152.627717 20.971937 
L 150.664903 20.971937 
L 148.702089 20.971937 
L 146.739275 20.971937 
L 144.776461 20.971937 
L 142.813647 20.971937 
L 140.850833 20.971937 
L 138.888019 20.971937 
L 136.925205 20.971937 
L 134.962391 20.971937 
L 132.999577 20.971937 
L 131.036763 20.971937 
L 129.073949 20.971937 
L 127.111135 20.971937 
L 125.148321 20.971937 
L 123.185506 20.971937 
L 121.222692 20.971937 
L 119.259878 20.971937 
L 117.297064 20.971937 
L 115.33425 20.971937 
L 113.371436 20.971937 
L 111.408622 20.971937 
L 109.445808 20.971937 
L 107.482994 20.971937 
L 105.52018 20.971937 
L 103.557366 20.971937 
L 101.594552 20.971937 
L 99.631738 20.971937 
L 97.668924 20.971937 
L 95.706109 20.971937 
L 93.743295 20.971937 
L 91.780481 20.971937 
L 89.817667 20.971937 
L 87.854853 20.971937 
L 85.892039 20.971937 
L 83.929225 20.971937 
L 81.966411 20.971937 
L 80.003597 20.971937 
L 78.040783 20.971937 
L 76.077969 20.971937 
z
" style="stroke: #4a90d9; stroke-opacity: 0.15"/>
    </defs>
    <g clip-path="url(#p05d2769b7e)">
     <use xlink:href="#m4499ff1970" x="0" y="293.566875" style="fill: #4a90d9; fill-opacity: 0.15; stroke: #4a90d9; stroke-opacity: 0.15"/>
    </g>
   </g>
   <g id="matplotlib.axis_1">
    <g id="xtick_1">
     <g id="line2d_1">
      <defs>
       <path id="m82931f70b8" d="M 0 0 
L 0 3.5 
" style="stroke: #666666; stroke-width: 0.8"/>
      </defs>
      <g>
       <use xlink:href="#m82931f70b8" x="76.077969" y="236.922812" style="fill: #666666; stroke: #666666; stroke-width: 0.8"/>
      </g>
     </g>
     <g id="text_1">
      <!-- Start -->
      <g style="fill: #666666" transform="translate(64.264141 251.7775) scale(0.11 -0.11)">
       <defs>
        <path id="HelveticaNeue-53" d="M 3142 3232 
L 3718 3232 
Q 3706 3610 3574 3882 
Q 3443 4154 3216 4333 
Q 2989 4512 2688 4595 
Q 2387 4678 2035 4678 
Q 1722 4678 1424 4598 
Q 1126 4518 892 4355 
Q 659 4192 518 3939 
Q 378 3686 378 3341 
Q 378 3027 502 2819 
Q 627 2611 835 2480 
Q 1043 2349 1305 2269 
Q 1568 2189 1840 2128 
Q 2112 2067 2374 2009 
Q 2637 1952 2845 1859 
Q 3053 1766 3177 1619 
Q 3302 1472 3302 1235 
Q 3302 986 3200 826 
Q 3098 666 2931 573 
Q 2765 480 2557 441 
Q 2349 403 2144 403 
Q 1888 403 1645 467 
Q 1402 531 1219 665 
Q 1037 800 925 1008 
Q 813 1216 813 1504 
L 237 1504 
Q 237 1088 387 784 
Q 538 480 797 285 
Q 1056 90 1398 -6 
Q 1741 -102 2125 -102 
Q 2438 -102 2755 -28 
Q 3072 45 3328 208 
Q 3584 371 3747 630 
Q 3910 890 3910 1254 
Q 3910 1594 3785 1818 
Q 3661 2042 3453 2189 
Q 3245 2336 2982 2422 
Q 2720 2509 2448 2573 
Q 2176 2637 1913 2691 
Q 1651 2746 1443 2829 
Q 1235 2912 1110 3043 
Q 986 3174 986 3386 
Q 986 3610 1072 3760 
Q 1158 3910 1302 4000 
Q 1446 4090 1632 4128 
Q 1818 4166 2010 4166 
Q 2483 4166 2787 3945 
Q 3091 3725 3142 3232 
z
" transform="scale(0.015625)"/>
        <path id="HelveticaNeue-74" d="M 1165 3309 
L 1165 4301 
L 621 4301 
L 621 3309 
L 58 3309 
L 58 2829 
L 621 2829 
L 621 723 
Q 621 493 665 352 
Q 710 211 803 134 
Q 896 58 1046 29 
Q 1197 0 1408 0 
L 1824 0 
L 1824 480 
L 1574 480 
Q 1446 480 1366 489 
Q 1286 499 1241 531 
Q 1197 563 1181 620 
Q 1165 678 1165 774 
L 1165 2829 
L 1824 2829 
L 1824 3309 
L 1165 3309 
z
" transform="scale(0.015625)"/>
        <path id="HelveticaNeue-61" d="M 3341 13 
Q 3200 -70 2950 -70 
Q 2739 -70 2614 48 
Q 2490 166 2490 435 
Q 2266 166 1968 48 
Q 1670 -70 1325 -70 
Q 1101 -70 899 -19 
Q 698 32 550 141 
Q 403 250 316 426 
Q 230 602 230 851 
Q 230 1133 326 1312 
Q 422 1491 579 1603 
Q 736 1715 937 1772 
Q 1139 1830 1350 1869 
Q 1574 1914 1776 1936 
Q 1978 1958 2131 2000 
Q 2285 2042 2374 2122 
Q 2464 2202 2464 2355 
Q 2464 2534 2397 2643 
Q 2330 2752 2224 2809 
Q 2118 2867 1987 2886 
Q 1856 2906 1728 2906 
Q 1382 2906 1152 2774 
Q 922 2643 902 2278 
L 358 2278 
Q 371 2586 486 2797 
Q 602 3008 794 3139 
Q 986 3270 1232 3328 
Q 1478 3386 1760 3386 
Q 1984 3386 2205 3354 
Q 2426 3322 2605 3222 
Q 2784 3123 2893 2944 
Q 3002 2765 3002 2477 
L 3002 774 
Q 3002 582 3024 492 
Q 3046 403 3174 403 
Q 3245 403 3341 435 
L 3341 13 
z
M 2458 1709 
Q 2355 1632 2188 1597 
Q 2022 1562 1840 1539 
Q 1658 1517 1472 1488 
Q 1286 1459 1139 1395 
Q 992 1331 899 1212 
Q 806 1094 806 890 
Q 806 755 860 662 
Q 915 570 1001 512 
Q 1088 454 1203 428 
Q 1318 403 1446 403 
Q 1715 403 1907 476 
Q 2099 550 2220 662 
Q 2342 774 2400 905 
Q 2458 1037 2458 1152 
L 2458 1709 
z
" transform="scale(0.015625)"/>
        <path id="HelveticaNeue-72" d="M 390 3309 
L 390 0 
L 934 0 
L 934 1472 
Q 934 1792 998 2038 
Q 1062 2285 1203 2457 
Q 1344 2630 1574 2720 
Q 1805 2810 2131 2810 
L 2131 3386 
Q 1690 3398 1402 3206 
Q 1114 3014 915 2611 
L 902 2611 
L 902 3309 
L 390 3309 
z
" transform="scale(0.015625)"/>
       </defs>
       <use xlink:href="#HelveticaNeue-53"/>
       <use xlink:href="#HelveticaNeue-74" transform="translate(64.799988 0)"/>
       <use xlink:href="#HelveticaNeue-61" transform="translate(96.299973 0)"/>
       <use xlink:href="#HelveticaNeue-72" transform="translate(149.999969 0)"/>
       <use xlink:href="#HelveticaNeue-74" transform="translate(183.299957 0)"/>
      </g>
     </g>
    </g>
    <g id="xtick_2">
     <g id="line2d_2">
      <g>
       <use xlink:href="#m82931f70b8" x="271.377969" y="236.922812" style="fill: #666666; stroke: #666666; stroke-width: 0.8"/>
      </g>
     </g>
     <g id="text_2">
      <!-- Middle -->
      <g style="fill: #666666" transform="translate(254.669141 251.7775) scale(0.11 -0.11)">
       <defs>
        <path id="HelveticaNeue-4d" d="M 512 4570 
L 512 0 
L 1088 0 
L 1088 3802 
L 1101 3802 
L 2528 0 
L 3046 0 
L 4474 3802 
L 4486 3802 
L 4486 0 
L 5062 0 
L 5062 4570 
L 4230 4570 
L 2784 730 
L 1344 4570 
L 512 4570 
z
" transform="scale(0.015625)"/>
        <path id="HelveticaNeue-69" d="M 986 3904 
L 986 4570 
L 442 4570 
L 442 3904 
L 986 3904 
z
M 442 3309 
L 442 0 
L 986 0 
L 986 3309 
L 442 3309 
z
" transform="scale(0.015625)"/>
        <path id="HelveticaNeue-64" d="M 806 1626 
Q 806 1869 857 2099 
Q 909 2330 1024 2509 
Q 1139 2688 1331 2797 
Q 1523 2906 1798 2906 
Q 2080 2906 2278 2800 
Q 2477 2694 2601 2521 
Q 2726 2349 2784 2121 
Q 2842 1894 2842 1651 
Q 2842 1421 2787 1197 
Q 2733 973 2611 797 
Q 2490 621 2298 512 
Q 2106 403 1830 403 
Q 1568 403 1373 505 
Q 1178 608 1053 781 
Q 928 954 867 1174 
Q 806 1395 806 1626 
z
M 3366 0 
L 3366 4570 
L 2822 4570 
L 2822 2867 
L 2810 2867 
Q 2720 3014 2589 3113 
Q 2458 3213 2310 3273 
Q 2163 3334 2016 3360 
Q 1869 3386 1741 3386 
Q 1363 3386 1078 3248 
Q 794 3110 605 2876 
Q 416 2643 323 2329 
Q 230 2016 230 1664 
Q 230 1312 326 998 
Q 422 685 611 448 
Q 800 211 1085 70 
Q 1370 -70 1754 -70 
Q 2099 -70 2387 51 
Q 2675 173 2810 448 
L 2822 448 
L 2822 0 
L 3366 0 
z
" transform="scale(0.015625)"/>
        <path id="HelveticaNeue-6c" d="M 442 4570 
L 442 0 
L 986 0 
L 986 4570 
L 442 4570 
z
" transform="scale(0.015625)"/>
        <path id="HelveticaNeue-65" d="M 2707 1971 
L 806 1971 
Q 819 2163 889 2332 
Q 960 2502 1081 2630 
Q 1203 2758 1372 2832 
Q 1542 2906 1754 2906 
Q 1958 2906 2128 2832 
Q 2298 2758 2422 2633 
Q 2547 2509 2620 2336 
Q 2694 2163 2707 1971 
z
M 3232 1050 
L 2694 1050 
Q 2624 723 2403 563 
Q 2182 403 1837 403 
Q 1568 403 1369 492 
Q 1171 582 1043 732 
Q 915 883 857 1078 
Q 800 1274 806 1491 
L 3283 1491 
Q 3296 1792 3229 2125 
Q 3162 2458 2986 2739 
Q 2810 3021 2518 3203 
Q 2227 3386 1786 3386 
Q 1446 3386 1161 3258 
Q 877 3130 669 2899 
Q 461 2669 345 2355 
Q 230 2042 230 1664 
Q 243 1286 342 966 
Q 442 646 640 416 
Q 838 186 1129 58 
Q 1421 -70 1818 -70 
Q 2381 -70 2752 211 
Q 3123 493 3232 1050 
z
" transform="scale(0.015625)"/>
       </defs>
       <use xlink:href="#HelveticaNeue-4d"/>
       <use xlink:href="#HelveticaNeue-69" transform="translate(87.099991 0)"/>
       <use xlink:href="#HelveticaNeue-64" transform="translate(109.299988 0)"/>
       <use xlink:href="#HelveticaNeue-64" transform="translate(168.599976 0)"/>
       <use xlink:href="#HelveticaNeue-6c" transform="translate(227.899963 0)"/>
       <use xlink:href="#HelveticaNeue-65" transform="translate(250.09996 0)"/>
      </g>
     </g>
    </g>
    <g id="xtick_3">
     <g id="line2d_3">
      <g>
       <use xlink:href="#m82931f70b8" x="466.677969" y="236.922812" style="fill: #666666; stroke: #666666; stroke-width: 0.8"/>
      </g>
     </g>
     <g id="text_3">
      <!-- End -->
      <g style="fill: #666666" transform="translate(456.998828 251.7775) scale(0.11 -0.11)">
       <defs>
        <path id="HelveticaNeue-45" d="M 499 4570 
L 499 0 
L 3674 0 
L 3674 512 
L 1107 512 
L 1107 2093 
L 3482 2093 
L 3482 2605 
L 1107 2605 
L 1107 4058 
L 3654 4058 
L 3654 4570 
L 499 4570 
z
" transform="scale(0.015625)"/>
        <path id="HelveticaNeue-6e" d="M 410 3309 
L 410 0 
L 954 0 
L 954 1869 
Q 954 2093 1014 2281 
Q 1075 2470 1196 2611 
Q 1318 2752 1500 2829 
Q 1683 2906 1933 2906 
Q 2246 2906 2425 2726 
Q 2605 2547 2605 2240 
L 2605 0 
L 3149 0 
L 3149 2176 
Q 3149 2445 3094 2665 
Q 3040 2886 2905 3046 
Q 2771 3206 2553 3296 
Q 2336 3386 2010 3386 
Q 1274 3386 934 2784 
L 922 2784 
L 922 3309 
L 410 3309 
z
" transform="scale(0.015625)"/>
       </defs>
       <use xlink:href="#HelveticaNeue-45"/>
       <use xlink:href="#HelveticaNeue-6e" transform="translate(61.099991 0)"/>
       <use xlink:href="#HelveticaNeue-64" transform="translate(116.699982 0)"/>
      </g>
     </g>
    </g>
    <g id="text_4">
     <!-- Position in Context -->
     <g style="fill: #222222" transform="translate(224.726797 269.799531) scale(0.11 -0.11)">
      <defs>
       <path id="HelveticaNeue-50" d="M 1107 2381 
L 1107 4058 
L 2298 4058 
Q 2816 4058 3056 3843 
Q 3296 3629 3296 3219 
Q 3296 2810 3056 2592 
Q 2816 2374 2298 2381 
L 1107 2381 
z
M 499 4570 
L 499 0 
L 1107 0 
L 1107 1869 
L 2502 1869 
Q 3194 1862 3549 2220 
Q 3904 2579 3904 3219 
Q 3904 3859 3549 4214 
Q 3194 4570 2502 4570 
L 499 4570 
z
" transform="scale(0.015625)"/>
       <path id="HelveticaNeue-6f" d="M 806 1651 
Q 806 1952 886 2185 
Q 966 2419 1107 2579 
Q 1248 2739 1437 2822 
Q 1626 2906 1837 2906 
Q 2048 2906 2237 2822 
Q 2426 2739 2566 2579 
Q 2707 2419 2787 2185 
Q 2867 1952 2867 1651 
Q 2867 1350 2787 1116 
Q 2707 883 2566 726 
Q 2426 570 2237 486 
Q 2048 403 1837 403 
Q 1626 403 1437 486 
Q 1248 570 1107 726 
Q 966 883 886 1116 
Q 806 1350 806 1651 
z
M 230 1651 
Q 230 1286 332 972 
Q 435 659 640 425 
Q 845 192 1145 61 
Q 1446 -70 1837 -70 
Q 2234 -70 2531 61 
Q 2829 192 3033 425 
Q 3238 659 3340 972 
Q 3443 1286 3443 1651 
Q 3443 2016 3340 2333 
Q 3238 2650 3033 2883 
Q 2829 3117 2531 3251 
Q 2234 3386 1837 3386 
Q 1446 3386 1145 3251 
Q 845 3117 640 2883 
Q 435 2650 332 2333 
Q 230 2016 230 1651 
z
" transform="scale(0.015625)"/>
       <path id="HelveticaNeue-73" d="M 742 1043 
L 198 1043 
Q 211 736 326 521 
Q 442 307 634 176 
Q 826 45 1075 -12 
Q 1325 -70 1600 -70 
Q 1850 -70 2102 -22 
Q 2355 26 2556 147 
Q 2758 269 2883 467 
Q 3008 666 3008 966 
Q 3008 1203 2915 1363 
Q 2822 1523 2672 1628 
Q 2522 1734 2326 1798 
Q 2131 1862 1926 1907 
Q 1734 1952 1542 1993 
Q 1350 2035 1196 2096 
Q 1043 2157 944 2249 
Q 845 2342 845 2483 
Q 845 2611 909 2691 
Q 973 2771 1075 2819 
Q 1178 2867 1302 2886 
Q 1427 2906 1549 2906 
Q 1683 2906 1814 2877 
Q 1946 2848 2054 2784 
Q 2163 2720 2233 2614 
Q 2304 2509 2317 2349 
L 2861 2349 
Q 2842 2650 2733 2851 
Q 2624 3053 2441 3171 
Q 2259 3290 2022 3338 
Q 1786 3386 1504 3386 
Q 1286 3386 1065 3331 
Q 845 3277 669 3165 
Q 493 3053 381 2873 
Q 269 2694 269 2445 
Q 269 2125 429 1945 
Q 589 1766 829 1667 
Q 1069 1568 1350 1513 
Q 1632 1459 1872 1392 
Q 2112 1325 2272 1216 
Q 2432 1107 2432 896 
Q 2432 742 2355 643 
Q 2278 544 2160 493 
Q 2042 442 1901 422 
Q 1760 403 1632 403 
Q 1466 403 1309 435 
Q 1152 467 1027 540 
Q 902 614 825 739 
Q 749 864 742 1043 
z
" transform="scale(0.015625)"/>
       <path id="HelveticaNeue-20" transform="scale(0.015625)"/>
       <path id="HelveticaNeue-43" d="M 3712 3194 
L 4320 3194 
Q 4269 3558 4102 3836 
Q 3936 4115 3686 4300 
Q 3437 4486 3117 4582 
Q 2797 4678 2438 4678 
Q 1914 4678 1507 4489 
Q 1101 4301 829 3974 
Q 557 3648 416 3209 
Q 275 2771 275 2272 
Q 275 1773 406 1337 
Q 538 902 800 582 
Q 1062 262 1459 80 
Q 1856 -102 2387 -102 
Q 3264 -102 3769 378 
Q 4275 858 4365 1722 
L 3757 1722 
Q 3738 1440 3642 1197 
Q 3546 954 3376 778 
Q 3206 602 2972 502 
Q 2739 403 2438 403 
Q 2029 403 1734 556 
Q 1440 710 1251 969 
Q 1062 1229 972 1577 
Q 883 1926 883 2317 
Q 883 2675 972 3008 
Q 1062 3341 1251 3600 
Q 1440 3859 1731 4012 
Q 2022 4166 2432 4166 
Q 2912 4166 3261 3923 
Q 3610 3680 3712 3194 
z
" transform="scale(0.015625)"/>
       <path id="HelveticaNeue-78" d="M 1299 1741 
L 58 0 
L 717 0 
L 1638 1370 
L 2560 0 
L 3258 0 
L 1978 1786 
L 3117 3309 
L 2464 3309 
L 1638 2150 
L 845 3309 
L 147 3309 
L 1299 1741 
z
" transform="scale(0.015625)"/>
      </defs>
      <use xlink:href="#HelveticaNeue-50"/>
      <use xlink:href="#HelveticaNeue-6f" transform="translate(64.799988 0)"/>
      <use xlink:href="#HelveticaNeue-73" transform="translate(122.199982 0)"/>
      <use xlink:href="#HelveticaNeue-69" transform="translate(172.199966 0)"/>
      <use xlink:href="#HelveticaNeue-74" transform="translate(194.399963 0)"/>
      <use xlink:href="#HelveticaNeue-69" transform="translate(225.899948 0)"/>
      <use xlink:href="#HelveticaNeue-6f" transform="translate(248.099945 0)"/>
      <use xlink:href="#HelveticaNeue-6e" transform="translate(305.499939 0)"/>
      <use xlink:href="#HelveticaNeue-20" transform="translate(361.09993 0)"/>
      <use xlink:href="#HelveticaNeue-69" transform="translate(388.899918 0)"/>
      <use xlink:href="#HelveticaNeue-6e" transform="translate(411.099915 0)"/>
      <use xlink:href="#HelveticaNeue-20" transform="translate(466.699905 0)"/>
      <use xlink:href="#HelveticaNeue-43" transform="translate(494.499893 0)"/>
      <use xlink:href="#HelveticaNeue-6f" transform="translate(566.699875 0)"/>
      <use xlink:href="#HelveticaNeue-6e" transform="translate(624.099869 0)"/>
      <use xlink:href="#HelveticaNeue-74" transform="translate(679.69986 0)"/>
      <use xlink:href="#HelveticaNeue-65" transform="translate(711.199844 0)"/>
      <use xlink:href="#HelveticaNeue-78" transform="translate(764.899841 0)"/>
      <use xlink:href="#HelveticaNeue-74" transform="translate(816.699829 0)"/>
     </g>
    </g>
   </g>
   <g id="matplotlib.axis_2">
    <g id="ytick_1">
     <g id="line2d_4">
      <defs>
       <path id="m5e60106cdb" d="M 0 0 
L -3.5 0 
" style="stroke: #666666; stroke-width: 0.8"/>
      </defs>
      <g>
       <use xlink:href="#m5e60106cdb" x="76.077969" y="211.050812" style="fill: #666666; stroke: #666666; stroke-width: 0.8"/>
      </g>
     </g>
     <g id="text_5">
      <!-- 40% -->
      <g style="fill: #666666" transform="translate(45.847344 214.978156) scale(0.11 -0.11)">
       <defs>
        <path id="HelveticaNeue-34" d="M 2170 1542 
L 646 1542 
L 2157 3763 
L 2170 3763 
L 2170 1542 
z
M 2682 1542 
L 2682 4538 
L 2246 4538 
L 179 1587 
L 179 1062 
L 2170 1062 
L 2170 0 
L 2682 0 
L 2682 1062 
L 3296 1062 
L 3296 1542 
L 2682 1542 
z
" transform="scale(0.015625)"/>
        <path id="HelveticaNeue-30" d="M 845 2234 
Q 845 2400 848 2601 
Q 851 2803 880 3004 
Q 909 3206 963 3398 
Q 1018 3590 1123 3734 
Q 1229 3878 1389 3968 
Q 1549 4058 1779 4058 
Q 2010 4058 2170 3968 
Q 2330 3878 2435 3734 
Q 2541 3590 2595 3398 
Q 2650 3206 2678 3004 
Q 2707 2803 2710 2601 
Q 2714 2400 2714 2234 
Q 2714 1978 2698 1661 
Q 2682 1344 2595 1065 
Q 2509 787 2317 595 
Q 2125 403 1779 403 
Q 1434 403 1242 595 
Q 1050 787 963 1065 
Q 877 1344 861 1661 
Q 845 1978 845 2234 
z
M 269 2227 
Q 269 1978 281 1709 
Q 294 1440 345 1184 
Q 397 928 493 701 
Q 589 474 755 301 
Q 922 128 1174 29 
Q 1427 -70 1779 -70 
Q 2138 -70 2387 29 
Q 2637 128 2803 301 
Q 2970 474 3066 701 
Q 3162 928 3213 1184 
Q 3264 1440 3277 1709 
Q 3290 1978 3290 2227 
Q 3290 2477 3277 2745 
Q 3264 3014 3213 3270 
Q 3162 3526 3066 3756 
Q 2970 3987 2803 4160 
Q 2637 4333 2384 4435 
Q 2131 4538 1779 4538 
Q 1427 4538 1174 4435 
Q 922 4333 755 4160 
Q 589 3987 493 3756 
Q 397 3526 345 3270 
Q 294 3014 281 2745 
Q 269 2477 269 2227 
z
" transform="scale(0.015625)"/>
        <path id="HelveticaNeue-25" d="M 1069 3251 
Q 1069 3398 1088 3561 
Q 1107 3725 1168 3862 
Q 1229 4000 1337 4093 
Q 1446 4186 1626 4186 
Q 1811 4186 1916 4093 
Q 2022 4000 2080 3862 
Q 2138 3725 2154 3561 
Q 2170 3398 2170 3258 
Q 2170 3110 2150 2944 
Q 2131 2778 2070 2640 
Q 2010 2502 1901 2412 
Q 1792 2323 1606 2323 
Q 1427 2323 1321 2416 
Q 1216 2509 1158 2646 
Q 1101 2784 1085 2947 
Q 1069 3110 1069 3251 
z
M 589 3238 
Q 589 2976 643 2745 
Q 698 2515 819 2342 
Q 941 2170 1139 2070 
Q 1338 1971 1626 1971 
Q 1907 1971 2099 2080 
Q 2291 2189 2416 2365 
Q 2541 2541 2595 2774 
Q 2650 3008 2650 3258 
Q 2650 3520 2602 3753 
Q 2554 3987 2435 4160 
Q 2317 4333 2121 4435 
Q 1926 4538 1626 4538 
Q 1331 4538 1132 4432 
Q 934 4326 812 4147 
Q 691 3968 640 3734 
Q 589 3501 589 3238 
z
M 4230 1203 
Q 4230 1350 4249 1513 
Q 4269 1677 4329 1814 
Q 4390 1952 4499 2045 
Q 4608 2138 4787 2138 
Q 4973 2138 5078 2045 
Q 5184 1952 5241 1814 
Q 5299 1677 5315 1513 
Q 5331 1350 5331 1210 
Q 5331 1062 5312 896 
Q 5293 730 5232 592 
Q 5171 454 5062 364 
Q 4954 275 4768 275 
Q 4589 275 4483 368 
Q 4378 461 4320 598 
Q 4262 736 4246 899 
Q 4230 1062 4230 1203 
z
M 3750 1190 
Q 3750 928 3804 697 
Q 3859 467 3980 297 
Q 4102 128 4300 29 
Q 4499 -70 4787 -70 
Q 5069 -70 5261 35 
Q 5453 141 5577 317 
Q 5702 493 5756 726 
Q 5811 960 5811 1210 
Q 5811 1472 5763 1705 
Q 5715 1939 5596 2112 
Q 5478 2285 5283 2387 
Q 5088 2490 4787 2490 
Q 4493 2490 4294 2384 
Q 4096 2278 3974 2099 
Q 3853 1920 3801 1686 
Q 3750 1453 3750 1190 
z
M 4646 4621 
L 1203 -134 
L 1754 -134 
L 5190 4621 
L 4646 4621 
z
" transform="scale(0.015625)"/>
       </defs>
       <use xlink:href="#HelveticaNeue-34"/>
       <use xlink:href="#HelveticaNeue-30" transform="translate(55.599991 0)"/>
       <use xlink:href="#HelveticaNeue-25" transform="translate(111.199982 0)"/>
      </g>
     </g>
    </g>
    <g id="ytick_2">
     <g id="line2d_5">
      <g>
       <use xlink:href="#m5e60106cdb" x="76.077969" y="159.306812" style="fill: #666666; stroke: #666666; stroke-width: 0.8"/>
      </g>
     </g>
     <g id="text_6">
      <!-- 60% -->
      <g style="fill: #666666" transform="translate(45.847344 163.234156) scale(0.11 -0.11)">
       <defs>
        <path id="HelveticaNeue-36" d="M 2650 3379 
L 3194 3379 
Q 3142 3942 2809 4240 
Q 2477 4538 1914 4538 
Q 1427 4538 1107 4333 
Q 787 4128 595 3789 
Q 403 3450 323 3011 
Q 243 2573 243 2106 
Q 243 1747 297 1363 
Q 352 979 518 659 
Q 685 339 992 134 
Q 1299 -70 1805 -70 
Q 2234 -70 2525 74 
Q 2816 218 2992 438 
Q 3168 659 3245 928 
Q 3322 1197 3322 1446 
Q 3322 1760 3226 2029 
Q 3130 2298 2954 2496 
Q 2778 2694 2518 2806 
Q 2259 2918 1933 2918 
Q 1562 2918 1277 2777 
Q 992 2637 800 2323 
L 787 2336 
Q 794 2598 838 2899 
Q 883 3200 1001 3459 
Q 1120 3718 1331 3888 
Q 1542 4058 1888 4058 
Q 2214 4058 2412 3872 
Q 2611 3686 2650 3379 
z
M 1830 2438 
Q 2061 2438 2233 2355 
Q 2406 2272 2521 2134 
Q 2637 1997 2691 1808 
Q 2746 1619 2746 1408 
Q 2746 1210 2685 1027 
Q 2624 845 2509 704 
Q 2394 563 2224 483 
Q 2054 403 1830 403 
Q 1606 403 1430 483 
Q 1254 563 1136 697 
Q 1018 832 954 1017 
Q 890 1203 890 1414 
Q 890 1626 950 1814 
Q 1011 2003 1132 2140 
Q 1254 2278 1427 2358 
Q 1600 2438 1830 2438 
z
" transform="scale(0.015625)"/>
       </defs>
       <use xlink:href="#HelveticaNeue-36"/>
       <use xlink:href="#HelveticaNeue-30" transform="translate(55.599991 0)"/>
       <use xlink:href="#HelveticaNeue-25" transform="translate(111.199982 0)"/>
      </g>
     </g>
    </g>
    <g id="ytick_3">
     <g id="line2d_6">
      <g>
       <use xlink:href="#m5e60106cdb" x="76.077969" y="107.562812" style="fill: #666666; stroke: #666666; stroke-width: 0.8"/>
      </g>
     </g>
     <g id="text_7">
      <!-- 80% -->
      <g style="fill: #666666" transform="translate(45.847344 111.490156) scale(0.11 -0.11)">
       <defs>
        <path id="HelveticaNeue-38" d="M 992 3360 
Q 992 3533 1056 3661 
Q 1120 3789 1225 3878 
Q 1331 3968 1478 4013 
Q 1626 4058 1786 4058 
Q 2118 4058 2332 3882 
Q 2547 3706 2547 3360 
Q 2547 3014 2336 2822 
Q 2125 2630 1798 2630 
Q 1632 2630 1485 2675 
Q 1338 2720 1229 2809 
Q 1120 2899 1056 3036 
Q 992 3174 992 3360 
z
M 416 3379 
Q 416 3072 589 2813 
Q 762 2554 1050 2438 
Q 666 2304 461 2006 
Q 256 1709 256 1306 
Q 256 960 374 701 
Q 493 442 701 269 
Q 909 96 1190 13 
Q 1472 -70 1798 -70 
Q 2112 -70 2387 19 
Q 2662 109 2864 285 
Q 3066 461 3184 717 
Q 3302 973 3302 1306 
Q 3302 1728 3104 2019 
Q 2906 2310 2496 2438 
Q 2784 2566 2953 2819 
Q 3123 3072 3123 3379 
Q 3123 3597 3046 3805 
Q 2970 4013 2806 4176 
Q 2643 4339 2380 4438 
Q 2118 4538 1747 4538 
Q 1485 4538 1245 4461 
Q 1005 4384 819 4237 
Q 634 4090 525 3875 
Q 416 3661 416 3379 
z
M 832 1280 
Q 832 1478 905 1638 
Q 979 1798 1110 1913 
Q 1242 2029 1418 2089 
Q 1594 2150 1792 2150 
Q 1984 2150 2153 2083 
Q 2323 2016 2451 1901 
Q 2579 1786 2652 1629 
Q 2726 1472 2726 1286 
Q 2726 1094 2659 934 
Q 2592 774 2467 656 
Q 2342 538 2172 470 
Q 2003 403 1798 403 
Q 1376 403 1104 636 
Q 832 870 832 1280 
z
" transform="scale(0.015625)"/>
       </defs>
       <use xlink:href="#HelveticaNeue-38"/>
       <use xlink:href="#HelveticaNeue-30" transform="translate(55.599991 0)"/>
       <use xlink:href="#HelveticaNeue-25" transform="translate(111.199982 0)"/>
      </g>
     </g>
    </g>
    <g id="ytick_4">
     <g id="line2d_7">
      <g>
       <use xlink:href="#m5e60106cdb" x="76.077969" y="55.818812" style="fill: #666666; stroke: #666666; stroke-width: 0.8"/>
      </g>
     </g>
     <g id="text_8">
      <!-- 100% -->
      <g style="fill: #666666" transform="translate(39.732031 59.746156) scale(0.11 -0.11)">
       <defs>
        <path id="HelveticaNeue-31" d="M 2278 0 
L 2278 4538 
L 1862 4538 
Q 1818 4282 1696 4115 
Q 1574 3949 1398 3853 
Q 1222 3757 1004 3721 
Q 787 3686 557 3686 
L 557 3251 
L 1734 3251 
L 1734 0 
L 2278 0 
z
" transform="scale(0.015625)"/>
       </defs>
       <use xlink:href="#HelveticaNeue-31"/>
       <use xlink:href="#HelveticaNeue-30" transform="translate(55.599991 0)"/>
       <use xlink:href="#HelveticaNeue-30" transform="translate(111.199982 0)"/>
       <use xlink:href="#HelveticaNeue-25" transform="translate(166.799973 0)"/>
      </g>
     </g>
    </g>
    <g id="text_9">
     <!-- Retrieval Accuracy -->
     <g style="fill: #222222" transform="translate(29.454687 185.833828) rotate(-90) scale(0.11 -0.11)">
      <defs>
       <path id="HelveticaNeue-52" d="M 499 4570 
L 499 0 
L 1107 0 
L 1107 1952 
L 2592 1952 
Q 2816 1952 2950 1885 
Q 3085 1818 3168 1706 
Q 3251 1594 3289 1443 
Q 3328 1293 3354 1126 
Q 3386 960 3392 787 
Q 3398 614 3404 464 
Q 3411 314 3433 192 
Q 3456 70 3520 0 
L 4198 0 
Q 4102 115 4054 265 
Q 4006 416 3980 582 
Q 3955 749 3948 921 
Q 3942 1094 3930 1261 
Q 3910 1427 3875 1580 
Q 3840 1734 3766 1859 
Q 3693 1984 3568 2073 
Q 3443 2163 3245 2202 
L 3245 2214 
Q 3661 2330 3849 2643 
Q 4038 2957 4038 3373 
Q 4038 3930 3670 4250 
Q 3302 4570 2650 4570 
L 499 4570 
z
M 2374 2464 
L 1107 2464 
L 1107 4058 
L 2618 4058 
Q 3046 4058 3238 3840 
Q 3430 3622 3430 3277 
Q 3430 3027 3344 2870 
Q 3258 2714 3114 2621 
Q 2970 2528 2778 2496 
Q 2586 2464 2374 2464 
z
" transform="scale(0.015625)"/>
       <path id="HelveticaNeue-76" d="M 1901 0 
L 3110 3309 
L 2541 3309 
L 1638 550 
L 1626 550 
L 698 3309 
L 90 3309 
L 1318 0 
L 1901 0 
z
" transform="scale(0.015625)"/>
       <path id="HelveticaNeue-41" d="M 1286 1888 
L 2061 4019 
L 2074 4019 
L 2835 1888 
L 1286 1888 
z
M 1741 4570 
L -38 0 
L 582 0 
L 1094 1376 
L 3027 1376 
L 3526 0 
L 4198 0 
L 2413 4570 
L 1741 4570 
z
" transform="scale(0.015625)"/>
       <path id="HelveticaNeue-63" d="M 2656 2246 
L 3219 2246 
Q 3187 2541 3065 2755 
Q 2944 2970 2755 3110 
Q 2566 3251 2320 3318 
Q 2074 3386 1792 3386 
Q 1402 3386 1107 3248 
Q 813 3110 617 2870 
Q 422 2630 326 2307 
Q 230 1984 230 1613 
Q 230 1242 329 931 
Q 429 621 624 397 
Q 819 173 1110 51 
Q 1402 -70 1779 -70 
Q 2413 -70 2781 262 
Q 3149 595 3238 1210 
L 2682 1210 
Q 2630 826 2403 614 
Q 2176 403 1773 403 
Q 1517 403 1331 505 
Q 1146 608 1030 777 
Q 915 947 860 1164 
Q 806 1382 806 1613 
Q 806 1862 857 2096 
Q 909 2330 1027 2509 
Q 1146 2688 1344 2797 
Q 1542 2906 1837 2906 
Q 2182 2906 2387 2733 
Q 2592 2560 2656 2246 
z
" transform="scale(0.015625)"/>
       <path id="HelveticaNeue-75" d="M 3149 0 
L 3149 3309 
L 2605 3309 
L 2605 1440 
Q 2605 1216 2544 1027 
Q 2483 838 2361 697 
Q 2240 557 2057 480 
Q 1875 403 1626 403 
Q 1312 403 1133 582 
Q 954 762 954 1069 
L 954 3309 
L 410 3309 
L 410 1133 
Q 410 864 464 643 
Q 518 422 652 262 
Q 787 102 1004 16 
Q 1222 -70 1549 -70 
Q 1914 -70 2182 74 
Q 2451 218 2624 525 
L 2637 525 
L 2637 0 
L 3149 0 
z
" transform="scale(0.015625)"/>
       <path id="HelveticaNeue-79" d="M 1709 -442 
Q 1613 -685 1520 -851 
Q 1427 -1018 1315 -1123 
Q 1203 -1229 1065 -1277 
Q 928 -1325 749 -1325 
Q 653 -1325 557 -1312 
Q 461 -1299 371 -1267 
L 371 -768 
Q 442 -800 534 -822 
Q 627 -845 691 -845 
Q 858 -845 970 -765 
Q 1082 -685 1139 -538 
L 1363 19 
L 51 3309 
L 666 3309 
L 1632 602 
L 1645 602 
L 2573 3309 
L 3149 3309 
L 1709 -442 
z
" transform="scale(0.015625)"/>
      </defs>
      <use xlink:href="#HelveticaNeue-52"/>
      <use xlink:href="#HelveticaNeue-65" transform="translate(68.499985 0)"/>
      <use xlink:href="#HelveticaNeue-74" transform="translate(122.199982 0)"/>
      <use xlink:href="#HelveticaNeue-72" transform="translate(153.699966 0)"/>
      <use xlink:href="#HelveticaNeue-69" transform="translate(186.999954 0)"/>
      <use xlink:href="#HelveticaNeue-65" transform="translate(209.199951 0)"/>
      <use xlink:href="#HelveticaNeue-76" transform="translate(262.899948 0)"/>
      <use xlink:href="#HelveticaNeue-61" transform="translate(312.899933 0)"/>
      <use xlink:href="#HelveticaNeue-6c" transform="translate(366.59993 0)"/>
      <use xlink:href="#HelveticaNeue-20" transform="translate(388.799927 0)"/>
      <use xlink:href="#HelveticaNeue-41" transform="translate(416.599915 0)"/>
      <use xlink:href="#HelveticaNeue-63" transform="translate(481.399902 0)"/>
      <use xlink:href="#HelveticaNeue-63" transform="translate(535.099899 0)"/>
      <use xlink:href="#HelveticaNeue-75" transform="translate(588.799896 0)"/>
      <use xlink:href="#HelveticaNeue-72" transform="translate(644.399887 0)"/>
      <use xlink:href="#HelveticaNeue-61" transform="translate(677.699875 0)"/>
      <use xlink:href="#HelveticaNeue-63" transform="translate(731.399872 0)"/>
      <use xlink:href="#HelveticaNeue-79" transform="translate(785.099869 0)"/>
     </g>
    </g>
   </g>
   <g id="line2d_8">
    <path d="M 76.077969 68.754812 
L 80.003597 76.633955 
L 83.929225 84.043594 
L 87.854853 91.014821 
L 91.780481 97.57681 
L 95.706109 103.756181 
L 99.631738 109.576497 
L 103.557366 115.057942 
L 107.482994 120.217169 
L 111.408622 125.067363 
L 115.33425 129.618486 
L 119.259878 133.877711 
L 123.185506 137.849999 
L 127.111135 141.538795 
L 131.036763 144.946794 
L 134.962391 148.07673 
L 138.888019 150.932131 
L 142.813647 153.518006 
L 146.739275 155.841406 
L 150.664903 157.911834 
L 154.590532 159.741471 
L 158.51616 161.345206 
L 162.441788 162.74047 
L 166.367416 163.946884 
L 172.255858 165.449283 
L 178.1443 166.650291 
L 184.032743 167.624712 
L 191.883999 168.688049 
L 203.660883 170.019302 
L 219.363396 171.563945 
L 229.177466 172.338114 
L 237.028723 172.766633 
L 244.879979 172.976925 
L 252.731235 172.957569 
L 262.545305 172.660127 
L 291.987516 171.47694 
L 301.801587 171.463045 
L 315.541285 171.742878 
L 325.355356 171.891592 
L 333.206612 171.779528 
L 339.095054 171.474719 
L 344.983496 170.930792 
L 350.871939 170.116275 
L 356.760381 169.013255 
L 362.648823 167.616134 
L 368.537265 165.928348 
L 374.425707 163.957512 
L 380.31415 161.709682 
L 386.202592 159.183543 
L 392.091034 156.365362 
L 397.979476 153.225398 
L 401.905104 150.930658 
L 405.830733 148.453894 
L 409.756361 145.773707 
L 413.681989 142.866109 
L 417.607617 139.705151 
L 421.533245 136.263649 
L 425.458873 132.513963 
L 429.384501 128.428784 
L 433.31013 123.981864 
L 437.235758 119.148664 
L 441.161386 113.906859 
L 445.087014 108.236685 
L 449.012642 102.121089 
L 452.93827 95.545686 
L 456.863898 88.498524 
L 460.789527 80.969662 
L 464.715155 72.9506 
L 466.677969 68.754812 
L 466.677969 68.754812 
" clip-path="url(#p05d2769b7e)" style="fill: none; stroke: #4a90d9; stroke-width: 2.5; stroke-linecap: square"/>
   </g>
   <g id="patch_3">
    <path d="M 76.077969 236.922812 
L 76.077969 42.882812 
" style="fill: none; stroke: #444444; stroke-width: 0.8; stroke-linejoin: miter; stroke-linecap: square"/>
   </g>
   <g id="patch_4">
    <path d="M 76.077969 236.922812 
L 466.677969 236.922812 
" style="fill: none; stroke: #444444; stroke-width: 0.8; stroke-linejoin: miter; stroke-linecap: square"/>
   </g>
   <g id="text_10">
    <!-- Strong recall -->
    <g style="fill: #4a90d9" transform="translate(95.607969 80.50765) scale(0.09 -0.09)">
     <defs>
      <path id="HelveticaNeue-67" d="M 3264 282 
L 3264 3309 
L 2752 3309 
L 2752 2835 
L 2746 2835 
Q 2598 3110 2336 3248 
Q 2074 3386 1760 3386 
Q 1331 3386 1036 3222 
Q 742 3059 563 2806 
Q 384 2554 307 2243 
Q 230 1933 230 1638 
Q 230 1299 323 995 
Q 416 691 601 464 
Q 787 237 1062 102 
Q 1338 -32 1709 -32 
Q 2029 -32 2313 112 
Q 2598 256 2739 563 
L 2752 563 
L 2752 346 
Q 2752 70 2697 -160 
Q 2643 -390 2521 -553 
Q 2400 -717 2214 -809 
Q 2029 -902 1760 -902 
Q 1626 -902 1478 -873 
Q 1331 -845 1206 -781 
Q 1082 -717 995 -614 
Q 909 -512 902 -365 
L 358 -365 
Q 371 -634 499 -819 
Q 627 -1005 822 -1120 
Q 1018 -1235 1258 -1286 
Q 1498 -1338 1728 -1338 
Q 2522 -1338 2893 -934 
Q 3264 -531 3264 282 
z
M 1741 442 
Q 1472 442 1293 554 
Q 1114 666 1005 848 
Q 896 1030 851 1254 
Q 806 1478 806 1702 
Q 806 1939 860 2156 
Q 915 2374 1033 2540 
Q 1152 2707 1337 2806 
Q 1523 2906 1786 2906 
Q 2042 2906 2221 2803 
Q 2400 2701 2512 2531 
Q 2624 2362 2675 2150 
Q 2726 1939 2726 1722 
Q 2726 1491 2672 1260 
Q 2618 1030 2502 848 
Q 2387 666 2198 554 
Q 2010 442 1741 442 
z
" transform="scale(0.015625)"/>
     </defs>
     <use xlink:href="#HelveticaNeue-53"/>
     <use xlink:href="#HelveticaNeue-74" transform="translate(64.799988 0)"/>
     <use xlink:href="#HelveticaNeue-72" transform="translate(96.299973 0)"/>
     <use xlink:href="#HelveticaNeue-6f" transform="translate(127.84996 0)"/>
     <use xlink:href="#HelveticaNeue-6e" transform="translate(185.249954 0)"/>
     <use xlink:href="#HelveticaNeue-67" transform="translate(240.849945 0)"/>
     <use xlink:href="#HelveticaNeue-20" transform="translate(298.249939 0)"/>
     <use xlink:href="#HelveticaNeue-72" transform="translate(326.049927 0)"/>
     <use xlink:href="#HelveticaNeue-65" transform="translate(357.599915 0)"/>
     <use xlink:href="#HelveticaNeue-63" transform="translate(411.299911 0)"/>
     <use xlink:href="#HelveticaNeue-61" transform="translate(464.999908 0)"/>
     <use xlink:href="#HelveticaNeue-6c" transform="translate(518.699905 0)"/>
     <use xlink:href="#HelveticaNeue-6c" transform="translate(540.899902 0)"/>
    </g>
    <!-- at start -->
    <g style="fill: #4a90d9" transform="translate(95.607969 90.101088) scale(0.09 -0.09)">
     <use xlink:href="#HelveticaNeue-61"/>
     <use xlink:href="#HelveticaNeue-74" transform="translate(53.699997 0)"/>
     <use xlink:href="#HelveticaNeue-20" transform="translate(85.199982 0)"/>
     <use xlink:href="#HelveticaNeue-73" transform="translate(112.999969 0)"/>
     <use xlink:href="#HelveticaNeue-74" transform="translate(162.999954 0)"/>
     <use xlink:href="#HelveticaNeue-61" transform="translate(194.499939 0)"/>
     <use xlink:href="#HelveticaNeue-72" transform="translate(248.199936 0)"/>
     <use xlink:href="#HelveticaNeue-74" transform="translate(281.499924 0)"/>
    </g>
   </g>
   <g id="text_11">
    <!-- Lost in -->
    <g style="fill: #d9534f" transform="translate(257.87375 186.430975) scale(0.09 -0.09)">
     <defs>
      <path id="HelveticaNeue-4c" d="M 499 4570 
L 499 0 
L 3526 0 
L 3526 512 
L 1107 512 
L 1107 4570 
L 499 4570 
z
" transform="scale(0.015625)"/>
     </defs>
     <use xlink:href="#HelveticaNeue-4c"/>
     <use xlink:href="#HelveticaNeue-6f" transform="translate(55.599991 0)"/>
     <use xlink:href="#HelveticaNeue-73" transform="translate(112.999985 0)"/>
     <use xlink:href="#HelveticaNeue-74" transform="translate(162.999969 0)"/>
     <use xlink:href="#HelveticaNeue-20" transform="translate(194.499954 0)"/>
     <use xlink:href="#HelveticaNeue-69" transform="translate(222.299942 0)"/>
     <use xlink:href="#HelveticaNeue-6e" transform="translate(244.499939 0)"/>
    </g>
    <!-- the middle -->
    <g style="fill: #d9534f" transform="translate(250.20125 195.916131) scale(0.09 -0.09)">
     <defs>
      <path id="HelveticaNeue-68" d="M 410 4570 
L 410 0 
L 954 0 
L 954 1869 
Q 954 2093 1014 2281 
Q 1075 2470 1196 2611 
Q 1318 2752 1500 2829 
Q 1683 2906 1933 2906 
Q 2246 2906 2425 2726 
Q 2605 2547 2605 2240 
L 2605 0 
L 3149 0 
L 3149 2176 
Q 3149 2445 3094 2665 
Q 3040 2886 2905 3046 
Q 2771 3206 2553 3296 
Q 2336 3386 2010 3386 
Q 1862 3386 1705 3354 
Q 1549 3322 1405 3254 
Q 1261 3187 1145 3081 
Q 1030 2976 966 2822 
L 954 2822 
L 954 4570 
L 410 4570 
z
" transform="scale(0.015625)"/>
      <path id="HelveticaNeue-6d" d="M 410 3309 
L 410 0 
L 954 0 
L 954 2061 
Q 954 2157 1002 2301 
Q 1050 2445 1155 2579 
Q 1261 2714 1430 2810 
Q 1600 2906 1837 2906 
Q 2022 2906 2140 2851 
Q 2259 2797 2329 2697 
Q 2400 2598 2429 2464 
Q 2458 2330 2458 2170 
L 2458 0 
L 3002 0 
L 3002 2061 
Q 3002 2445 3232 2675 
Q 3462 2906 3866 2906 
Q 4064 2906 4189 2848 
Q 4314 2790 4384 2691 
Q 4454 2592 4480 2457 
Q 4506 2323 4506 2170 
L 4506 0 
L 5050 0 
L 5050 2426 
Q 5050 2682 4970 2864 
Q 4890 3046 4746 3161 
Q 4602 3277 4400 3331 
Q 4198 3386 3949 3386 
Q 3622 3386 3350 3238 
Q 3078 3091 2912 2822 
Q 2810 3130 2560 3258 
Q 2310 3386 2003 3386 
Q 1306 3386 934 2822 
L 922 2822 
L 922 3309 
L 410 3309 
z
" transform="scale(0.015625)"/>
     </defs>
     <use xlink:href="#HelveticaNeue-74"/>
     <use xlink:href="#HelveticaNeue-68" transform="translate(31.499985 0)"/>
     <use xlink:href="#HelveticaNeue-65" transform="translate(87.099976 0)"/>
     <use xlink:href="#HelveticaNeue-20" transform="translate(140.799973 0)"/>
     <use xlink:href="#HelveticaNeue-6d" transform="translate(168.59996 0)"/>
     <use xlink:href="#HelveticaNeue-69" transform="translate(253.899948 0)"/>
     <use xlink:href="#HelveticaNeue-64" transform="translate(276.099945 0)"/>
     <use xlink:href="#HelveticaNeue-64" transform="translate(335.399933 0)"/>
     <use xlink:href="#HelveticaNeue-6c" transform="translate(394.699921 0)"/>
     <use xlink:href="#HelveticaNeue-65" transform="translate(416.899918 0)"/>
    </g>
   </g>
   <g id="text_12">
    <!-- Strong recall -->
    <g style="fill: #4a90d9" transform="translate(396.468125 80.50765) scale(0.09 -0.09)">
     <use xlink:href="#HelveticaNeue-53"/>
     <use xlink:href="#HelveticaNeue-74" transform="translate(64.799988 0)"/>
     <use xlink:href="#HelveticaNeue-72" transform="translate(96.299973 0)"/>
     <use xlink:href="#HelveticaNeue-6f" transform="translate(127.84996 0)"/>
     <use xlink:href="#HelveticaNeue-6e" transform="translate(185.249954 0)"/>
     <use xlink:href="#HelveticaNeue-67" transform="translate(240.849945 0)"/>
     <use xlink:href="#HelveticaNeue-20" transform="translate(298.249939 0)"/>
     <use xlink:href="#HelveticaNeue-72" transform="translate(326.049927 0)"/>
     <use xlink:href="#HelveticaNeue-65" transform="translate(357.599915 0)"/>
     <use xlink:href="#HelveticaNeue-63" transform="translate(411.299911 0)"/>
     <use xlink:href="#HelveticaNeue-61" transform="translate(464.999908 0)"/>
     <use xlink:href="#HelveticaNeue-6c" transform="translate(518.699905 0)"/>
     <use xlink:href="#HelveticaNeue-6c" transform="translate(540.899902 0)"/>
    </g>
    <!-- at end -->
    <g style="fill: #4a90d9" transform="translate(421.804531 90.101088) scale(0.09 -0.09)">
     <use xlink:href="#HelveticaNeue-61"/>
     <use xlink:href="#HelveticaNeue-74" transform="translate(53.699997 0)"/>
     <use xlink:href="#HelveticaNeue-20" transform="translate(85.199982 0)"/>
     <use xlink:href="#HelveticaNeue-65" transform="translate(112.999969 0)"/>
     <use xlink:href="#HelveticaNeue-6e" transform="translate(166.699966 0)"/>
     <use xlink:href="#HelveticaNeue-64" transform="translate(222.299957 0)"/>
    </g>
   </g>
   <g id="patch_5">
    <path d="M 271.377969 135.437745 
Q 271.377969 151.546291 271.377969 165.977785 
" style="fill: none; stroke: #d9534f; stroke-width: 1.5; stroke-linecap: round"/>
    <path d="M 273.577969 161.577785 
L 271.377969 165.977785 
L 269.177969 161.577785 
" style="fill: none; stroke: #d9534f; stroke-width: 1.5; stroke-linecap: round"/>
   </g>
   <g id="text_13">
    <!-- Context Rot: The Lost-in-the-Middle Effect -->
    <g style="fill: #222222" transform="translate(147.368125 30.882812) scale(0.13 -0.13)">
     <defs>
      <path id="HelveticaNeue-3a" d="M 1242 2598 
L 1242 3309 
L 531 3309 
L 531 2598 
L 1242 2598 
z
M 531 710 
L 531 0 
L 1242 0 
L 1242 710 
L 531 710 
z
" transform="scale(0.015625)"/>
      <path id="HelveticaNeue-54" d="M 1536 4058 
L 1536 0 
L 2144 0 
L 2144 4058 
L 3667 4058 
L 3667 4570 
L 13 4570 
L 13 4058 
L 1536 4058 
z
" transform="scale(0.015625)"/>
      <path id="HelveticaNeue-2d" d="M 320 2035 
L 320 1523 
L 2170 1523 
L 2170 2035 
L 320 2035 
z
" transform="scale(0.015625)"/>
      <path id="HelveticaNeue-66" d="M 634 2829 
L 634 0 
L 1178 0 
L 1178 2829 
L 1818 2829 
L 1818 3309 
L 1178 3309 
L 1178 3770 
Q 1178 3987 1286 4064 
Q 1395 4141 1594 4141 
Q 1664 4141 1747 4131 
Q 1830 4122 1901 4096 
L 1901 4570 
Q 1824 4595 1725 4608 
Q 1626 4621 1549 4621 
Q 1101 4621 867 4413 
Q 634 4205 634 3802 
L 634 3309 
L 77 3309 
L 77 2829 
L 634 2829 
z
" transform="scale(0.015625)"/>
     </defs>
     <use xlink:href="#HelveticaNeue-43"/>
     <use xlink:href="#HelveticaNeue-6f" transform="translate(72.199982 0)"/>
     <use xlink:href="#HelveticaNeue-6e" transform="translate(129.599976 0)"/>
     <use xlink:href="#HelveticaNeue-74" transform="translate(185.199966 0)"/>
     <use xlink:href="#HelveticaNeue-65" transform="translate(216.699951 0)"/>
     <use xlink:href="#HelveticaNeue-78" transform="translate(270.399948 0)"/>
     <use xlink:href="#HelveticaNeue-74" transform="translate(322.199936 0)"/>
     <use xlink:href="#HelveticaNeue-20" transform="translate(353.699921 0)"/>
     <use xlink:href="#HelveticaNeue-52" transform="translate(381.499908 0)"/>
     <use xlink:href="#HelveticaNeue-6f" transform="translate(449.999893 0)"/>
     <use xlink:href="#HelveticaNeue-74" transform="translate(507.399887 0)"/>
     <use xlink:href="#HelveticaNeue-3a" transform="translate(538.899872 0)"/>
     <use xlink:href="#HelveticaNeue-20" transform="translate(566.69986 0)"/>
     <use xlink:href="#HelveticaNeue-54" transform="translate(594.499847 0)"/>
     <use xlink:href="#HelveticaNeue-68" transform="translate(651.899841 0)"/>
     <use xlink:href="#HelveticaNeue-65" transform="translate(707.499832 0)"/>
     <use xlink:href="#HelveticaNeue-20" transform="translate(761.199829 0)"/>
     <use xlink:href="#HelveticaNeue-4c" transform="translate(788.999817 0)"/>
     <use xlink:href="#HelveticaNeue-6f" transform="translate(844.599808 0)"/>
     <use xlink:href="#HelveticaNeue-73" transform="translate(901.999802 0)"/>
     <use xlink:href="#HelveticaNeue-74" transform="translate(951.999786 0)"/>
     <use xlink:href="#HelveticaNeue-2d" transform="translate(983.499771 0)"/>
     <use xlink:href="#HelveticaNeue-69" transform="translate(1022.399765 0)"/>
     <use xlink:href="#HelveticaNeue-6e" transform="translate(1044.599762 0)"/>
     <use xlink:href="#HelveticaNeue-2d" transform="translate(1100.199753 0)"/>
     <use xlink:href="#HelveticaNeue-74" transform="translate(1139.099747 0)"/>
     <use xlink:href="#HelveticaNeue-68" transform="translate(1170.599731 0)"/>
     <use xlink:href="#HelveticaNeue-65" transform="translate(1226.199722 0)"/>
     <use xlink:href="#HelveticaNeue-2d" transform="translate(1279.899719 0)"/>
     <use xlink:href="#HelveticaNeue-4d" transform="translate(1318.799713 0)"/>
     <use xlink:href="#HelveticaNeue-69" transform="translate(1405.899704 0)"/>
     <use xlink:href="#HelveticaNeue-64" transform="translate(1428.099701 0)"/>
     <use xlink:href="#HelveticaNeue-64" transform="translate(1487.399689 0)"/>
     <use xlink:href="#HelveticaNeue-6c" transform="translate(1546.699677 0)"/>
     <use xlink:href="#HelveticaNeue-65" transform="translate(1568.899673 0)"/>
     <use xlink:href="#HelveticaNeue-20" transform="translate(1622.59967 0)"/>
     <use xlink:href="#HelveticaNeue-45" transform="translate(1650.399658 0)"/>
     <use xlink:href="#HelveticaNeue-66" transform="translate(1711.499649 0)"/>
     <use xlink:href="#HelveticaNeue-66" transform="translate(1739.34964 0)"/>
     <use xlink:href="#HelveticaNeue-65" transform="translate(1768.949631 0)"/>
     <use xlink:href="#HelveticaNeue-63" transform="translate(1822.649628 0)"/>
     <use xlink:href="#HelveticaNeue-74" transform="translate(1876.349625 0)"/>
    </g>
   </g>
  </g>
 </g>
 <defs>
  <clipPath id="p05d2769b7e">
   <rect x="76.077969" y="42.882812" width="390.6" height="194.04"/>
  </clipPath>
 </defs>
</svg>
